<svg width="168" height="29" viewBox="0 0 168 29" fill="none" xmlns="http://www.w3.org/2000/svg">
<g clip-path="url(#clip0_480_13095)">
<path d="M104.117 25.3628C100.928 28.4103 97.1005 29.0493 93.1262 29.0001C90.0841 28.951 87.0911 28.656 84.2453 27.5255C84 27.4272 83.3622 27.5255 83.3131 27.673C82.9696 28.5086 82.2827 28.5086 81.5958 28.5086C80.0257 28.5086 78.5047 28.6069 76.9346 28.4594C76.1495 28.3611 75.2663 28.0171 74.7757 27.4272C72.0771 24.3306 69.4766 21.1357 66.8271 17.9899C66.5327 17.6459 66.1893 17.3018 65.6495 16.6628C65.5514 17.4001 65.4533 17.8916 65.4533 18.334C65.4533 21.1357 65.4533 23.8882 65.4533 26.6899C65.4533 28.1645 65.1098 28.4594 63.6378 28.4594C61.7243 28.4594 59.8107 28.4594 57.8972 28.4594C56.278 28.4594 56.0327 28.2137 56.0327 26.6408C56.0327 25.3628 56.0327 24.0849 56.0327 22.856C56.0327 22.4137 55.9836 21.9713 55.8855 21.1849C52.5 26.7391 47.7407 29.0493 41.7056 29.0493C35.7196 29.0493 31.0093 26.6899 27.5748 21.1849C27.4766 21.9713 27.4276 22.3645 27.4276 22.7577C27.4276 24.1832 27.3785 25.6086 27.4276 27.034C27.4276 28.0171 27.035 28.5086 26.0537 28.4594C23.7477 28.4594 21.4907 28.4594 19.1846 28.4594C18.2033 28.4594 17.8107 27.9679 17.8107 26.9849C17.8107 24.5272 17.7617 22.0696 17.8107 19.612C17.8107 18.6289 17.4673 18.2849 16.535 18.334C14.6706 18.3832 12.757 18.3832 10.8925 18.334C10.0093 18.334 9.66589 18.6781 9.66589 19.5628C9.71495 21.9713 9.66589 24.3798 9.66589 26.7882C9.66589 27.9188 9.27336 28.4594 8.09579 28.4594C5.93692 28.4103 3.77804 28.4594 1.61916 28.4594C0.490654 28.5086 0 28.0662 0 26.9357C0 18.6781 0 10.4204 0 2.11367C0 1.08146 0.343458 0.589939 1.4229 0.639091C3.67991 0.688244 5.93692 0.688244 8.14486 0.639091C9.17523 0.639091 9.61682 1.08146 9.61682 2.11367C9.56776 4.42384 9.66589 6.68485 9.61682 8.99502C9.61682 10.0272 9.96028 10.3713 10.9907 10.3221C12.8061 10.273 14.6706 10.273 16.486 10.3221C17.4673 10.3713 17.7617 9.92892 17.7617 8.99502C17.7126 6.78316 17.7617 4.57129 17.7617 2.35943C17.7617 0.835702 17.9579 0.639091 19.4299 0.639091C21.4907 0.639091 23.6005 0.639091 25.6612 0.639091C27.1822 0.639091 27.3294 0.786549 27.3294 2.35943C27.3294 3.68655 27.3294 4.96452 27.3294 6.29163C27.3294 6.73401 27.3785 7.17638 27.4766 8.01197C30.8131 2.45774 35.6706 0.0492609 41.6075 0.0492609C47.4953 0.0492609 52.3528 2.35943 55.6893 7.86452C55.7874 7.17638 55.8855 6.73401 55.9346 6.34079C55.9836 4.86621 55.9346 3.39163 55.9346 1.91706C55.9346 1.03231 56.3271 0.639091 57.2103 0.639091C59.1238 0.639091 61.0374 0.540786 62.9509 0.688244C63.5397 0.737396 64.2266 1.22892 64.6192 1.67129C67.4159 4.91536 70.1145 8.25774 72.8622 11.5018C73.1075 11.7967 73.4509 11.9933 73.8925 12.4357C73.9416 11.895 73.9907 11.6001 73.9907 11.256C73.9907 8.20858 74.0397 5.21028 73.9907 2.16282C73.9907 1.03231 74.3341 0.540786 75.5607 0.589939C77.6215 0.688244 79.7313 0.639091 81.7921 0.589939C82.8715 0.540786 83.264 1.03231 83.215 2.01536C83.1659 2.7035 83.215 3.34248 83.3621 4.12892C86.1098 1.17977 89.6425 0.295024 93.3715 0.000108313C97.0514 -0.294807 100.584 0.491634 104.117 1.8679C104.411 0.639091 105.294 0.589939 106.325 0.589939C115.549 0.639091 124.773 0.589939 133.998 0.589939C135.862 0.589939 135.96 0.688244 135.96 2.65435C135.96 8.11028 135.96 13.5662 135.96 18.973C135.96 20.9391 135.96 20.9391 137.874 20.9882C140.18 20.9882 142.437 20.9391 144.743 20.9882C145.822 21.0374 146.166 20.595 146.166 19.5137C146.117 13.8611 146.166 8.20858 146.166 2.55604C146.166 0.589939 146.215 0.589939 148.128 0.589939C150.042 0.589939 151.956 0.589939 153.869 0.589939C155.488 0.589939 155.685 0.786549 155.685 2.45774C155.685 7.96282 155.685 13.5171 155.685 19.0221C155.685 20.8899 155.734 20.9391 157.598 20.9391C160.542 20.9391 163.486 20.9882 166.43 20.9391C167.509 20.9391 168 21.3323 167.951 22.4628C167.902 23.9374 167.902 25.412 167.951 26.8866C167.951 27.9679 167.558 28.4594 166.43 28.4594C164.124 28.4103 161.769 28.4594 159.463 28.4594C141.946 28.4594 124.43 28.4594 106.914 28.4594C104.607 28.4594 104.607 28.4594 104.313 26.1493C104.362 25.9527 104.264 25.756 104.117 25.3628ZM47.7897 14.5001C47.5444 13.5171 47.3481 12.534 47.0047 11.6001C45.729 8.11028 41.9019 7.12723 38.8107 8.6018C36.8481 9.58485 36.014 11.4035 35.7196 13.4188C35.0818 17.5967 37.7313 21.7255 42.3925 21.234C45.3855 20.8899 47.6425 18.0391 47.7897 14.5001ZM126.393 14.5984C126.393 12.8289 126.343 11.0594 126.393 9.33909C126.442 8.35604 126.049 8.06113 125.117 8.06113C121.78 8.11028 118.444 8.11028 115.058 8.06113C113.881 8.06113 113.783 8.65096 113.734 9.58485C113.734 10.5679 114.028 10.9611 115.058 10.912C118.002 10.8628 120.946 10.912 123.89 10.8628C124.822 10.8628 125.264 11.2069 125.215 12.1408C125.166 13.5171 125.166 14.9425 125.215 16.3188C125.264 17.4493 124.773 17.8425 123.694 17.7933C120.799 17.7442 117.904 17.7933 115.009 17.7442C114.126 17.7442 113.734 18.0391 113.734 18.9238C113.734 19.3171 113.734 19.7594 113.734 20.1527C113.734 20.8408 114.028 21.1357 114.813 21.1357C118.248 21.0865 121.682 21.0865 125.117 21.1357C126 21.1357 126.393 20.8408 126.343 19.956C126.393 18.1865 126.393 16.3679 126.393 14.5984ZM104.264 5.6035C104.166 5.6035 104.068 5.6035 103.97 5.6035C103.626 6.48824 103.283 7.32384 102.939 8.20858C102.596 8.94587 102.203 9.38824 101.222 8.99502C100.044 8.5035 98.7687 7.96282 97.5421 7.81536C95.7757 7.61875 94.0093 7.76621 92.243 7.86452C91.8995 7.91367 91.3107 8.65096 91.4089 8.94587C91.507 9.38824 91.9977 9.92892 92.4392 10.1255C93.5678 10.5188 94.7453 10.7154 95.8738 10.9611C97.3458 11.3543 98.8668 11.6493 100.339 12.1899C101.664 12.6323 102.89 13.3204 104.264 13.9594C104.264 11.2069 104.264 8.40519 104.264 5.6035ZM83.3621 20.8899C84.3925 19.3171 84.6869 19.2679 86.2079 19.956C86.993 20.3001 87.778 20.6933 88.5631 20.8899C90.9182 21.3815 93.3224 22.2662 95.7757 21.3323C96.2173 21.1849 96.8551 20.595 96.8061 20.3493C96.7079 19.9069 96.2664 19.3171 95.8248 19.1696C94.8435 18.7764 93.764 18.6289 92.7827 18.334C90.4766 17.6459 88.1706 16.9577 85.9626 16.1713C85.0794 15.8764 84.3925 15.1391 83.4112 14.451C83.3622 16.8103 83.3621 18.8255 83.3621 20.8899Z" fill="white"/>
</g>
<defs>
<clipPath id="clip0_480_13095">
<rect width="168" height="29" fill="white"/>
</clipPath>
</defs>
</svg>
